<?xml version="1.0" encoding="utf-8"?>
<!-- Svg Vector Icons : http://www.onlinewebfonts.com/icon -->
<!DOCTYPE svg PUBLIC "-//W3C//DTD SVG 1.1//EN" "http://www.w3.org/Graphics/SVG/1.1/DTD/svg11.dtd">
<svg version="1.1" xmlns="http://www.w3.org/2000/svg" xmlns:xlink="http://www.w3.org/1999/xlink" x="0px" y="0px" viewBox="0 0 1000 1000" enable-background="new 0 0 1000 1000" xml:space="preserve">
<metadata> Svg Vector Icons : http://www.onlinewebfonts.com/icon </metadata>
<g><path d="M928.7,70.8H71.2C37.4,70.8,10,98.2,10,132v552.8c0,33.8,27.4,61.3,61.2,61.3h122v152.5c0,12.4,7.4,23.5,18.8,28.2c3.8,1.6,7.9,2.4,11.8,2.4c7.9,0,15.6-3.1,21.5-8.8l177.1-174.3h506.3c33.8,0,61.3-27.4,61.3-61.3V132C990,98.2,962.6,70.8,928.7,70.8z M928.7,684.9H397.4L254.5,825.5V684.9H71.2V132h857.5V684.9z M224.4,439.7h551.3c16.9,0,30.6-13.7,30.6-30.6c0-16.9-13.7-30.6-30.6-30.6H224.4c-16.9,0-30.6,13.7-30.6,30.6C193.7,426,207.5,439.7,224.4,439.7z M224.4,317.2h551.3c16.9,0,30.6-13.7,30.6-30.6c0-16.9-13.7-30.6-30.6-30.6H224.4c-16.9,0-30.6,13.7-30.6,30.6C193.7,303.5,207.5,317.2,224.4,317.2z M224.4,562.2h367.5c16.9,0,30.6-13.7,30.6-30.6c0-16.9-13.7-30.6-30.6-30.6H224.4c-16.9,0-30.6,13.7-30.6,30.6C193.7,548.5,207.5,562.2,224.4,562.2z"/></g>
</svg>