<?xml version="1.0" encoding="utf-8"?>
<!-- Svg Vector Icons : http://www.onlinewebfonts.com/icon -->
<!DOCTYPE svg PUBLIC "-//W3C//DTD SVG 1.1//EN" "http://www.w3.org/Graphics/SVG/1.1/DTD/svg11.dtd">
<svg version="1.1" xmlns="http://www.w3.org/2000/svg" xmlns:xlink="http://www.w3.org/1999/xlink" x="0px" y="0px" viewBox="0 0 1000 1000" enable-background="new 0 0 1000 1000" xml:space="preserve">
<metadata> Svg Vector Icons : http://www.onlinewebfonts.com/icon </metadata>
<g><path d="M210.1,654.2C209.1,652.9,211,655.5,210.1,654.2L210.1,654.2z"/><path d="M500,10c-214.1,0-387.6,173-387.6,386.3c0,98.2,38.2,189.8,98.8,257.9l251.5,317.1c19.8,24.9,52.2,24.8,72,0l250.5-317.1c63.5-68.8,102.3-157,102.3-257.9C887.5,183,714.1,10,500,10z M500,589.8c-107.3,0-194.2-86.6-194.2-193.6c0-106.9,86.9-193.6,194.2-193.6c107.2,0,194.2,86.7,194.2,193.6C694.2,503.2,607.3,589.8,500,589.8z"/></g>
</svg>